<?xml version="1.0" encoding="utf-8"?>
<svg viewBox="-13.95 164.355 499.874 128.69" xmlns="http://www.w3.org/2000/svg" xmlns:xlink="http://www.w3.org/1999/xlink">
  <defs>
    <linearGradient id="linear-gradient" x1="212.47" y1="66.25" x2="369.47" y2="66.25" gradientUnits="userSpaceOnUse">
      <stop offset="0" stop-color="#5d19f2"/>
      <stop offset="0.06" stop-color="#681fde"/>
      <stop offset="0.24" stop-color="#882fa7"/>
      <stop offset="0.42" stop-color="#a23c7a"/>
      <stop offset="0.59" stop-color="#b74756"/>
      <stop offset="0.74" stop-color="#c54e3d"/>
      <stop offset="0.89" stop-color="#ce522d"/>
      <stop offset="1" stop-color="#d15428"/>
    </linearGradient>
    <linearGradient id="linear-gradient-2" x1="376.53" y1="65.69" x2="464" y2="65.69" gradientUnits="userSpaceOnUse">
      <stop offset="0" stop-color="#d15428"/>
      <stop offset="0.36" stop-color="#d65526"/>
      <stop offset="0.78" stop-color="#e45920"/>
      <stop offset="1" stop-color="#ef5c1b"/>
    </linearGradient>
    <linearGradient id="linear-gradient-3" x1="-25.97" y1="149.66" x2="65.03" y2="58.66" gradientTransform="matrix(0.707107, 0.707107, -0.707107, 0.707107, 88.315563, -23.120001)" gradientUnits="userSpaceOnUse">
      <stop offset="0" stop-color="#5d19f2"/>
      <stop offset="1" stop-color="#ef5c1b"/>
    </linearGradient>
    <linearGradient id="linear-gradient-4" x1="1.7" y1="123.68" x2="46.03" y2="79.35" gradientTransform="matrix(0.707107, 0.707107, -0.707107, 0.707107, 88.315563, -23.120001)" gradientUnits="userSpaceOnUse">
      <stop offset="0" stop-color="#ef5c1b"/>
      <stop offset="0.05" stop-color="#e65828"/>
      <stop offset="0.52" stop-color="#9d3693"/>
      <stop offset="0.85" stop-color="#6f21d7"/>
      <stop offset="1" stop-color="#5d19f2"/>
    </linearGradient>
    <linearGradient id="linear-gradient-5" x1="4.37" y1="122.7" x2="38.07" y2="88.99" gradientTransform="matrix(0.707107, 0.707107, -0.707107, 0.707107, 52.44112, -23.120001)" xlink:href="#linear-gradient-3"/>
  </defs>
  <g id="Layer_2" data-name="Layer 2" transform="matrix(1, 0, 0, 1, 21.92378, 164.354568)">
    <g id="Layer_1-2" data-name="Layer 1">
      <path class="cls-1" d="M166.91,120.47a37.92,37.92,0,0,1-23.77-7.85q-10.21-7.84-10.21-19.28,0-8.69,4.12-14.17A24.5,24.5,0,0,1,147.86,71a38.79,38.79,0,0,1,14.48-2.67v1.53q-12.19,0-20,6t-7.85,17.44q0,11,9.83,18.29a36.89,36.89,0,0,0,22.63,7.31q12,0,18.52-5.86t6.47-15.62a21.67,21.67,0,0,0-3.58-12.65,35.08,35.08,0,0,0-9.14-9,127.65,127.65,0,0,0-11.81-7.16q-11.88-6.55-18.59-11.13a30.49,30.49,0,0,1-8.61-8.76q-3-4.8-3-12.26,0-11.28,8.45-18.06T168,11.67a131.87,131.87,0,0,1,17.75,1.22,124.81,124.81,0,0,1,14.86,2.74V38.79a61.61,61.61,0,0,0-14.32-18.13q-8.69-7.47-18.29-7.47t-15.62,4.5a14.48,14.48,0,0,0-6,12.26A15.65,15.65,0,0,0,150,40.09a44.16,44.16,0,0,0,8.84,8.15q5.17,3.66,10.51,6.7l8.38,5a141.94,141.94,0,0,1,12.8,8.23,32.54,32.54,0,0,1,8.92,9.6q3.27,5.49,3.27,14a26.05,26.05,0,0,1-9.29,20.57Q184.13,120.48,166.91,120.47Z" style="fill: rgb(93, 25, 242);"/>
      <path class="cls-2" d="M368.1,92.34q0,10.51-9.06,17.37a32.71,32.71,0,0,1-20.2,6.86q-11.58,0-19.12-7.54t-7.54-21.42q0-9.73,3.27-15.61a21.77,21.77,0,0,1,7.7-8.46c3-1.73,5.43-2.59,7.47-2.59H341q4.26,0,11,2.51a37.55,37.55,0,0,1,12.72,8.15l-13.1-22.4q-.76,10.22-16.31,10.21h-7.77q-7.32,0-11.05-5.41t-3.73-14.4V14.93h19a41.8,41.8,0,0,1,19.27,4.8,59.67,59.67,0,0,1,16.08,11.81L364.14,13.4H292.63v-.21H215.52l-3.05,19.35a73.63,73.63,0,0,1,16.92-12.42,40.8,40.8,0,0,1,19.66-5.41l29.1-.15L212.63,117.12v1.37h50.59q18,0,27.58-7.93c5.94-4.9,9.09-10.74,9.51-17.49a26.54,26.54,0,0,0,4.63,13.52,27.4,27.4,0,0,0,12.95,9.67,50.63,50.63,0,0,0,17.91,3q14,0,23.85-7.92t9.82-19Zm-62-21.56c-3.68,4.58-5.63,10.3-5.89,17.12a21.43,21.43,0,0,0-3.91-10.63A24.37,24.37,0,0,0,285.54,69,38.6,38.6,0,0,0,271,66.37V67.9q12.18,0,20,6t7.84,17.6q0,11.13-9.67,18.37t-26,7.24H227.1L292.63,14.56v-.25a19,19,0,0,1,4,2.37,10.75,10.75,0,0,1,4,5.71V39.61a19,19,0,0,0,5.94,13.87,26,26,0,0,0,14.78,7.32A29,29,0,0,0,306.08,70.78Z" style="fill: url(#linear-gradient);"/>
      <path class="cls-3" d="M464,118.64H430.48a20.19,20.19,0,0,0,6.55-3.43,10.71,10.71,0,0,0,4-5.71V83.29a26.3,26.3,0,0,0-3.89-14.48q-3.89-6.09-12.26-6.09-5.64,0-11.58,4.11a33.59,33.59,0,0,0-10,11.12,30.83,30.83,0,0,0-4,15.7V109.5a11.7,11.7,0,0,0,4,5.71,19.25,19.25,0,0,0,6.47,3.43H376.53a20.24,20.24,0,0,0,6.56-3.43,10.71,10.71,0,0,0,4-5.71V21.72a10.75,10.75,0,0,0-4-5.71,18.24,18.24,0,0,0-6.56-3.28h40.38q17.22,0,26.44,4.27t9.22,16.46a17,17,0,0,1-3.35,10.82,31.84,31.84,0,0,1-8.61,7.46,114.36,114.36,0,0,1-11.51,6.1l-6.85,3.5a21.13,21.13,0,0,1,2.59-.15q14.32,0,21.48,7.39a25.34,25.34,0,0,1,7.17,18.36V109.5a10.66,10.66,0,0,0,4,5.71A20.09,20.09,0,0,0,464,118.64ZM399.24,83.13a34,34,0,0,1,8.68-13.86,82.88,82.88,0,0,1,12.5-9.76,92.38,92.38,0,0,0,9.67-7.16,32.35,32.35,0,0,0,7.32-8.76,24.13,24.13,0,0,0,2.82-12.11q0-7.78-3.13-11.43a14.42,14.42,0,0,0-8.38-4.73,59.7,59.7,0,0,0-11.81-1.06H399.24Z" style="fill: url(#linear-gradient-2);"/>
      <polygon class="cls-4" points="60.646 32.17 28.476 0 -3.704 32.17 -35.874 64.35 -3.704 96.52 28.476 128.69 60.646 96.52 92.816 64.35 60.646 32.17" style="fill: url(#linear-gradient-3);"/>
      <polygon class="cls-5" points="50.516 43.49 28.476 21.45 6.426 43.49 -15.614 65.54 6.426 87.58 28.476 109.63 50.516 87.58 72.566 65.54 50.516 43.49" style="fill: url(#linear-gradient-4);"/>
      <polygon class="cls-6" points="40.386 54.81 28.476 42.9 16.556 54.81 4.646 66.73 16.556 78.65 28.476 90.56 40.386 78.65 52.306 66.73 40.386 54.81" style="fill: url(#linear-gradient-5);"/>
    </g>
  </g>
</svg>